<svg width="34" height="35" viewBox="0 0 34 35" fill="none" xmlns="http://www.w3.org/2000/svg">
<path opacity="0.8" d="M33.9997 17.2982C33.9997 17.6265 33.9489 17.8947 33.8865 17.8947L0.113182 17.8947C0.0507704 17.8947 -1.17218e-08 17.6265 -2.60735e-08 17.2982C-4.04251e-08 16.9698 0.0507703 16.7017 0.113182 16.7017L33.8868 16.7017C33.9492 16.7017 34 16.9698 34 17.2982L33.9997 17.2982Z" fill="url(#paint0_radial_13719_11049)"/>
<path opacity="0.8" d="M16.7018 34.5962C17.0301 34.5962 17.2982 34.5445 17.2982 34.481L17.2982 0.115168C17.2982 0.0516611 17.0301 -2.34436e-08 16.7018 -5.21469e-08C16.3734 -8.08503e-08 16.1053 0.051661 16.1053 0.115168L16.1053 34.4813C16.1053 34.5448 16.3734 34.5965 16.7018 34.5965L16.7018 34.5962Z" fill="url(#paint1_radial_13719_11049)"/>
<defs>
<radialGradient id="paint0_radial_13719_11049" cx="0" cy="0" r="1" gradientUnits="userSpaceOnUse" gradientTransform="translate(14.069 17.2982) scale(19.931 141.965)">
<stop stop-color="#747474"/>
<stop offset="1" stop-color="#242424" stop-opacity="0"/>
</radialGradient>
<radialGradient id="paint1_radial_13719_11049" cx="0" cy="0" r="1" gradientUnits="userSpaceOnUse" gradientTransform="translate(16.7018 14.3158) rotate(90) scale(20.2807 141.965)">
<stop stop-color="#747474"/>
<stop offset="1" stop-color="#242424" stop-opacity="0"/>
</radialGradient>
</defs>
</svg>
